<svg id="Layer_1" data-name="Layer 1" xmlns="http://www.w3.org/2000/svg" viewBox="0 0 1080 1080"><title>testando  cópia 10</title><path fill="#ffffff" d="M611.73,362c-27.27,60.15,94.34,47,101,93.25-6.24-53.13-109.84-39.81-101-93.25Zm87.11-23.72a145.3,145.3,0,0,0-29.43-23.38C682,325.69,687.24,336.28,687.07,347c4,1.36,7.91,2.84,12,4.33,2,.73,2.5-1.24,2.44-2.45-.21-3.89,0-8-2.62-10.63ZM523.24,578.63c14,29.26,46,42.39,52.92,42.87-36.44-27-77-111.85-37.49-238.49C504.26,450.79,507,544.83,523.24,578.63ZM651,269.76c4.09-12.31,14.47-25.21,14.47-25.21-26.49,5.89-39.65,24.36-39.65,24.36C578,192.7,405.28,221.8,405.28,340.24c2.61-8.68,17.06-29.67,35-26.53-.24,63.29-82.46,61.1-92.35,49.75,27.72,31.83,51.33,30.51,70.16,21.41-22.75,38.51-63.11,49.73-98.47,28.83a85.3,85.3,0,0,0,22.3,36.3c26.43,25,59.67,18.43,79.41-12,57.5-88.78,86.49-113.91,125.18-115.1-113.39,33.93-83,282.44-246.21,152.46a549.23,549.23,0,0,1-9.08-101.91V230.72a22.13,22.13,0,0,1,13.63-20.41L559,105,813.27,210.3a22.13,22.13,0,0,1,13.64,20.42V373.4c0,78-14.25,146.22-42.35,206.27a403.31,403.31,0,0,1-47.5,77.66c-39.09,0-225.2-139.54-136.29-234.87,16.12,34.36,64.92,11.47,103.19,51.78,19.5,27.06,47.45,16.88,64-.66,13.33-14.13,14.84-36.41-5.13-54.45-21.68-17.81-33-35.43-45.31-62.6,10.27-23.31-17.77-41.8-38.13-55.36-4.51-10.13-3.54-14.59-1.55-20.6,4.63-13.93,16.38-28.54,16.38-28.54-27.48,6.12-42.24,24.19-44.52,27.17C649.26,275.63,650,272.94,651,269.76Z"/></svg>